<svg width="1015" height="661" viewBox="0 0 1015 661" fill="none" xmlns="http://www.w3.org/2000/svg">
    <path
        d="M854.411 660.167C790.667 660.167 728.758 648.932 668.683 626.461C609.067 604.449 549.909 576.704 491.21 543.227C466.446 529.011 441.683 514.107 416.919 498.515C392.614 482.923 368.309 467.102 344.004 451.051C320.157 473.981 295.393 492.554 269.713 506.77C244.49 520.986 218.351 528.094 191.294 528.094C173.409 528.094 153.232 523.967 130.761 515.712C108.749 507.916 90.1759 496.91 75.0425 482.694C62.6607 470.771 51.4253 457.472 41.3364 442.797C31.7061 427.664 23.6808 412.759 17.2606 398.085C11.299 383.41 7.17168 370.799 4.87875 360.251C2.12722 345.577 0.751465 332.736 0.751465 321.73C0.751465 299.259 5.56662 283.438 15.1969 274.266C25.2859 264.636 38.1263 259.821 53.7182 259.821C67.0172 259.821 81.4627 262.802 97.0547 268.763C112.647 274.266 128.009 281.604 143.143 290.775C175.244 310.036 206.886 330.214 238.07 351.309C269.254 372.404 300.209 393.27 330.934 413.906C342.399 401.524 353.634 388.225 364.64 374.009C375.646 359.793 386.652 345.577 397.658 331.36C371.519 328.609 347.902 320.813 326.807 307.972C305.712 294.673 288.744 277.018 275.903 255.006C263.522 232.535 257.331 206.854 257.331 177.963C257.331 160.078 260.999 142.652 268.337 125.684C276.133 108.258 286.68 92.666 299.979 78.9083C313.278 64.6922 328.182 53.4568 344.691 45.2023C361.659 36.9477 379.315 32.8204 397.658 32.8204C413.25 32.8204 429.301 36.7184 445.81 44.5144C452.23 47.7245 455.44 51.3932 455.44 55.5204C455.44 60.1063 452.459 62.3992 446.498 62.3992C444.205 62.3992 442.37 61.9407 440.995 61.0235C432.282 55.979 423.11 53.4568 413.479 53.4568C397.888 53.4568 381.608 58.0427 364.64 67.2144C347.672 75.9276 332.539 88.3094 319.24 104.36C306.399 120.41 297.916 139.442 293.788 161.454C292.871 166.498 292.183 171.543 291.725 176.587C291.266 181.632 291.037 186.676 291.037 191.721C291.037 227.032 301.814 255.923 323.367 278.394C345.379 300.864 374.27 312.329 410.04 312.788C423.339 294.903 434.574 278.164 443.746 262.572C462.548 233.223 480.204 203.185 496.713 172.46C513.222 141.276 530.419 113.073 548.304 87.8508C566.189 62.6285 585.908 41.7628 607.462 25.2537C629.474 8.74461 654.925 0.490051 683.816 0.490051C697.115 0.490051 706.746 5.07591 712.707 14.2476C718.669 23.4194 721.65 32.8204 721.65 42.4507C721.65 64.0043 716.376 87.1629 705.828 111.927C695.74 136.232 681.523 160.537 663.18 184.842C644.836 208.688 623.742 230.93 599.895 251.566C576.507 271.744 551.285 288.941 524.228 303.157C497.172 316.915 469.886 325.857 442.37 329.985C429.53 348.328 416.231 366.442 402.473 384.327C389.174 401.753 375.188 418.263 360.513 433.854C380.691 447.612 400.868 460.911 421.046 473.751C441.224 487.051 461.631 499.662 482.268 511.585C539.132 545.062 597.373 572.577 656.989 594.13C717.064 616.143 780.807 627.149 848.22 627.149C861.977 627.149 877.111 625.544 893.62 622.334C910.129 619.124 925.95 613.85 941.083 606.512C956.675 599.175 969.287 589.315 978.917 576.934C989.006 565.01 994.05 549.877 994.05 531.533C994.05 519.61 992.216 508.604 988.547 498.515C985.337 488.426 980.981 479.025 975.478 470.312C974.102 467.561 973.414 465.497 973.414 464.121C973.414 461.828 974.56 460.223 976.853 459.306C977.312 459.306 977.541 459.306 977.541 459.306C978 458.847 978.458 458.618 978.917 458.618C980.751 458.618 982.356 459.306 983.732 460.682C985.566 461.599 987.171 462.516 988.547 463.433C999.095 471.688 1005.97 482.465 1009.18 495.764C1012.85 509.521 1014.69 521.215 1014.69 530.846C1014.69 573.035 1000.7 605.137 972.726 627.149C945.211 649.161 905.772 660.167 854.411 660.167ZM458.192 305.909C483.873 298.571 508.407 286.648 531.795 270.139C555.641 253.63 577.424 234.599 597.143 213.045C617.321 191.491 634.748 169.709 649.422 147.696C664.097 125.684 674.874 105.736 681.753 87.8508C683.128 84.1821 684.734 78.2205 686.568 69.9659C688.861 61.7114 690.007 53.6861 690.007 45.8901C690.007 38.5527 688.631 32.5911 685.88 28.0052C683.587 23.4194 679.46 21.1264 673.498 21.1264C660.658 20.2093 648.734 24.3366 637.728 33.5083C627.181 42.2214 617.321 52.5396 608.15 64.4629C596.685 78.6791 585.449 94.271 574.443 111.239C563.896 127.748 553.348 144.716 542.801 162.142L458.192 305.909ZM119.067 488.197C129.614 493.241 139.933 496.91 150.021 499.203C160.11 501.496 169.97 502.642 179.6 502.642C204.364 502.642 227.752 495.993 249.764 482.694C272.235 469.395 293.788 452.198 314.425 431.103C285.075 411.842 255.496 392.811 225.688 374.009C196.339 354.748 166.531 335.946 136.264 317.603C124.341 310.265 113.105 305.221 102.558 302.469C92.0102 299.259 82.3799 297.654 73.6667 297.654C59.4506 297.654 48.4445 301.552 40.6485 309.348C33.3111 317.144 30.5596 327.233 32.3939 339.615C36.0626 361.627 42.2536 384.327 50.9667 407.715C60.1384 430.644 73.4375 450.822 90.8637 468.248C94.5324 471.917 98.6597 475.357 103.246 478.567C107.831 482.235 113.105 485.445 119.067 488.197Z"
        fill="#B4C5B5" />
</svg>